<?xml version="1.0" encoding="UTF-8"?>
<!DOCTYPE svg PUBLIC "-//W3C//DTD SVG 1.1//EN" "http://www.w3.org/Graphics/SVG/1.1/DTD/svg11.dtd">
<!-- Creator: CorelDRAW X7 -->
<svg xmlns="http://www.w3.org/2000/svg" xml:space="preserve" width="35.2778mm" height="35.2778mm" version="1.1" style="shape-rendering:geometricPrecision; text-rendering:geometricPrecision; image-rendering:optimizeQuality; fill-rule:evenodd; clip-rule:evenodd"
viewBox="0 0 3528 3528"
 xmlns:xlink="http://www.w3.org/1999/xlink">
 <defs>
  <style type="text/css">
   <![CDATA[
    .str1 {stroke:#2B2A29;stroke-width:20}
    .str0 {stroke:black;stroke-width:20}
    .fil1 {fill:none}
    .fil2 {fill:#7688A1}
    .fil0 {fill:black;fill-rule:nonzero}
   ]]>
  </style>
 </defs>
 <g id="Слой_x0020_1">
  <metadata id="CorelCorpID_0Corel-Layer"/>
  <path class="fil0" d="M0 2748l0 -1969 733 0 875 1394c81,130 140,227 177,292 42,-72 108,-177 198,-316l890 -1370 655 0 0 1969 -470 0 0 -1647 -1080 1647 -441 0 -1067 -1677 0 1677 -470 0z"/>
  <path class="fil1 str0" d="M653 335c294,376 588,753 623,1253 35,499 -188,1123 -412,1746"/>
  <path class="fil1 str0" d="M3440 406c-559,452 -1118,905 -1469,1393 -351,488 -496,1011 -640,1535"/>
  <path class="fil1 str0" d="M653 335c194,0 388,0 548,149 161,149 289,447 356,676 68,229 76,390 83,551"/>
  <path class="fil1 str0" d="M3440 406c-259,0 -518,0 -818,217 -300,218 -641,653 -982,1088"/>
  <line class="fil1 str0" x1="864" y1="3334" x2="1331" y2= "3334" />
  <path class="fil2 str1" d="M864 3334l467 0c57,-208 115,-415 185,-620l-305 -478c-78,348 -212,723 -347,1098z"/>
  <path class="fil2 str1" d="M1279 1649l329 524c28,44 52,84 75,121 78,-168 172,-333 288,-495 200,-277 466,-543 761,-804l141 -216 111 0c149,-125 302,-249 456,-373 -259,0 -518,0 -818,217 -300,218 -641,653 -982,1088 -7,-161 -15,-322 -83,-551 -67,-229 -195,-527 -356,-676 -160,-149 -354,-149 -548,-149 294,376 588,753 623,1253 1,20 2,40 3,61z"/>
 </g>
</svg>
