<?xml version="1.0" encoding="UTF-8"?>
<!-- Generator: Adobe Illustrator 15.0.2, SVG Export Plug-In . SVG Version: 6.00 Build 0)  -->
<!DOCTYPE svg PUBLIC "-//W3C//DTD SVG 1.1//EN" "http://www.w3.org/Graphics/SVG/1.1/DTD/svg11.dtd">
<svg xmlns="http://www.w3.org/2000/svg" xmlns:xlink="http://www.w3.org/1999/xlink" version="1.1" id="Layer_1" x="0px" y="0px" width="512px" height="393.846px" viewBox="0 0 512 393.846" enable-background="new 0 0 512 393.846" xml:space="preserve">
<path d="M13.128,0v105.025h105.026V0H13.128z M170.667,0v105.025H512V0H170.667z M170.667,249.436H512V144.41H170.667V249.436z   M183.795,236.308v-78.77h315.077v78.77H183.795z M39.385,262.564h52.513V223.18h39.385v-52.513H91.897v-39.385H39.385v39.385H0  v52.513h39.385V262.564z M52.513,249.436v-39.384H13.128v-26.257h39.384V144.41H78.77v39.385h39.385v26.257H78.77v39.384H52.513z   M13.128,288.82v105.025h105.026V288.82H13.128z M170.667,288.82v105.025H512V288.82H170.667z" fill="#000000"/>
</svg>
