<?xml version="1.0" encoding="UTF-8"?>
<!DOCTYPE svg PUBLIC "-//W3C//DTD SVG 1.1//EN" "http://www.w3.org/Graphics/SVG/1.1/DTD/svg11.dtd">
<!-- Creator: CorelDRAW X7 -->
<svg xmlns="http://www.w3.org/2000/svg" xml:space="preserve" width="14mm" height="13mm" version="1.1" style="shape-rendering:geometricPrecision; text-rendering:geometricPrecision; image-rendering:optimizeQuality; fill-rule:evenodd; clip-rule:evenodd"
viewBox="0 0 1400 1300"
 xmlns:xlink="http://www.w3.org/1999/xlink">
 <defs>
  <style type="text/css">
   <![CDATA[
    .str1 {stroke:#032947;stroke-width:20}
    .str3 {stroke:#032947;stroke-width:10}
    .str2 {stroke:#032947;stroke-width:20;stroke-linecap:round}
    .str4 {stroke:#032947;stroke-width:10;stroke-linecap:round}
    .str0 {stroke:#032947;stroke-width:20;stroke-linecap:round;stroke-linejoin:round}
    .fil0 {fill:none}
    .fil4 {fill:#BBBBBB}
    .fil1 {fill:#C9C9CA}
    .fil2 {fill:#CCCCCD}
    .fil3 {fill:#CDCDCE}
   ]]>
  </style>
 </defs>
 <g id="Слой_x0020_9">
  <metadata id="CorelCorpID_0Corel-Layer"/>
  <g id="_962350120880">
   <g>
    <path class="fil0 str0" d="M1346 487c-19,40 -227,139 -399,199 -171,59 -351,118 -351,118 0,0 -139,47 -173,44 11,-19 11,-37 11,-37l-5 -13"/>
    <polyline class="fil0 str1" points="947,686 773,1176 619,1230 667,780 "/>
    <path class="fil0 str1" d="M424 846l-61 162c0,0 -6,17 -34,25 -29,8 -35,-4 -35,-4l8 -189"/>
    <path class="fil0 str0" d="M1346 487c-48,-19 -282,30 -455,85 -173,56 -352,117 -352,117 0,0 -140,46 -161,67 23,8 39,20 39,20l8 13"/>
    <polyline class="fil0 str1" points="891,572 347,322 191,371 610,665 "/>
    <path class="fil0 str0" d="M380 757l-182 -81c0,0 -19,-8 -46,2 -28,11 -22,23 -22,23l168 130"/>
    <line class="fil0 str1" x1="429" y1="798" x2="423" y2= "787" />
    <line class="fil0 str2" x1="302" y1="840" x2="298" y2= "831" />
   </g>
   <g>
    <path class="fil1 str0" d="M360 548l8 19c0,0 0,17 -11,36 34,3 173,-44 173,-44 0,0 180,-59 351,-118 172,-60 380,-159 399,-199 -49,-18 -282,30 -455,86 -173,55 -352,116 -352,116 0,0 -140,46 -161,68 23,7 38,19 38,19l10 17z"/>
    <polygon class="fil2 str1" points="881,441 707,931 553,985 601,535 "/>
    <polygon class="fil3 str1" points="825,328 281,77 125,127 544,420 "/>
    <path class="fil4 str0" d="M313 512l-181 -81c0,0 -19,-8 -46,2 -28,11 -22,23 -22,23l170 135 -6 194c0,0 6,11 34,3 29,-8 35,-24 35,-24l61 -163c17,-33 -6,-77 -45,-89z"/>
    <g>
     <g>
      <line class="fil0 str3" x1="796" y1="470" x2="668" y2= "945" />
      <line class="fil0 str3" x1="690" y1="506" x2="609" y2= "965" />
      <line class="fil0 str3" x1="734" y1="855" x2="561" y2= "912" />
      <line class="fil0 str3" x1="769" y1="756" x2="571" y2= "822" />
      <line class="fil0 str3" x1="812" y1="632" x2="583" y2= "709" />
      <line class="fil0 str3" x1="849" y1="522" x2="593" y2= "608" />
     </g>
     <g>
      <path class="fil0 str3" d="M1169 319c0,0 15,-33 -28,-70"/>
      <path class="fil0 str3" d="M1068 367c16,-7 -12,-101 -51,-92"/>
      <path class="fil0 str3" d="M968 408c10,-26 -12,-94 -63,-104"/>
      <path class="fil0 str3" d="M881 441c9,-27 -18,-86 -56,-113"/>
      <path class="fil0 str3" d="M796 470c10,-32 -28,-100 -56,-115"/>
      <path class="fil0 str3" d="M690 506c5,-31 -24,-99 -57,-116"/>
      <path class="fil0 str3" d="M601 535c2,-31 -17,-91 -57,-115"/>
      <path class="fil0 str3" d="M502 568c14,-21 5,-85 -50,-117"/>
      <line class="fil0 str3" x1="1280" y1="242" x2="361" y2= "549" />
      <path class="fil0 str3" d="M415 593c10,-24 -1,-82 -52,-112"/>
     </g>
     <g>
      <line class="fil0 str3" x1="351" y1="620" x2="236" y2= "659" />
      <line class="fil0 str3" x1="320" y1="704" x2="230" y2= "733" />
      <line class="fil0 str4" x1="292" y1="569" x2="260" y2= "789" />
     </g>
     <g>
      <line class="fil0 str3" x1="740" y1="355" x2="242" y2= "89" />
      <line class="fil0 str3" x1="634" y1="390" x2="183" y2= "108" />
      <line class="fil0 str3" x1="367" y1="116" x2="194" y2= "173" />
      <line class="fil0 str3" x1="476" y1="166" x2="279" y2= "232" />
      <line class="fil0 str3" x1="612" y1="230" x2="383" y2= "306" />
      <line class="fil0 str3" x1="733" y1="287" x2="477" y2= "373" />
     </g>
     <g>
      <line class="fil0 str3" x1="291" y1="503" x2="176" y2= "542" />
      <line class="fil0 str3" x1="198" y1="462" x2="108" y2= "491" />
      <line class="fil0 str4" x1="292" y1="569" x2="82" y2= "435" />
     </g>
     <line class="fil0 str3" x1="234" y1="591" x2="361" y2= "549" />
    </g>
   </g>
  </g>
 </g>
</svg>
