<?xml version="1.0" encoding="UTF-8"?>
<!DOCTYPE svg PUBLIC "-//W3C//DTD SVG 1.1//EN" "http://www.w3.org/Graphics/SVG/1.1/DTD/svg11.dtd">
<!-- Creator: CorelDRAW X7 -->
<svg xmlns="http://www.w3.org/2000/svg" xml:space="preserve" width="14mm" height="13mm" version="1.1" style="shape-rendering:geometricPrecision; text-rendering:geometricPrecision; image-rendering:optimizeQuality; fill-rule:evenodd; clip-rule:evenodd"
viewBox="0 0 1400 1300"
 xmlns:xlink="http://www.w3.org/1999/xlink">
 <defs>
  <style type="text/css">
   <![CDATA[
    .str1 {stroke:#032947;stroke-width:20}
    .str3 {stroke:#032947;stroke-width:10}
    .str2 {stroke:#032947;stroke-width:20;stroke-linecap:round}
    .str4 {stroke:#032947;stroke-width:10;stroke-linecap:round}
    .str0 {stroke:#032947;stroke-width:20;stroke-linecap:round;stroke-linejoin:round}
    .fil0 {fill:none}
    .fil4 {fill:#BBBBBB}
    .fil1 {fill:#C9C9CA}
    .fil2 {fill:#CCCCCD}
    .fil3 {fill:#CDCDCE}
   ]]>
  </style>
 </defs>
 <g id="Слой_x0020_9">
  <metadata id="CorelCorpID_0Corel-Layer"/>
  <g id="_962350120880">
   <g>
    <path class="fil0 str0" d="M1346 487c-19,40 -227,139 -399,199 -171,59 -351,118 -351,118 0,0 -139,47 -173,44 11,-19 11,-37 11,-37l-5 -13"/>
    <polyline class="fil0 str1" points="947,686 773,1176 619,1230 667,780 "/>
    <path class="fil0 str1" d="M424 846l-61 162c0,0 -6,17 -34,25 -29,8 -35,-4 -35,-4l8 -189"/>
    <path class="fil0 str0" d="M1346 487c-48,-19 -282,30 -455,85 -173,56 -352,117 -352,117 0,0 -140,46 -161,67 23,8 39,20 39,20l8 13"/>
    <polyline class="fil0 str1" points="891,572 347,322 191,371 610,665 "/>
    <path class="fil0 str0" d="M380 757l-182 -81c0,0 -19,-8 -46,2 -28,11 -22,23 -22,23l168 130"/>
    <line class="fil0 str1" x1="429" y1="798" x2="423" y2= "787" />
    <line class="fil0 str2" x1="302" y1="840" x2="298" y2= "831" />
   </g>
  </g>
 </g>
</svg>
